<?xml version="1.0" encoding="UTF-8" standalone="no"?>
<!DOCTYPE svg PUBLIC "-//W3C//DTD SVG 1.1//EN"
 "http://www.w3.org/Graphics/SVG/1.1/DTD/svg11.dtd">
<!-- Generated by graphviz version 2.38.0 (20140413.2041)
 -->
<!-- Title: %3 Pages: 1 -->
<svg width="1293pt" height="2851pt"
 viewBox="0.00 0.00 1293.29 2851.00" xmlns="http://www.w3.org/2000/svg" xmlns:xlink="http://www.w3.org/1999/xlink">
<g id="graph0" class="graph" transform="scale(1 1) rotate(0) translate(4 2847)">
<title>%3</title>
<polygon fill="white" stroke="none" points="-4,4 -4,-2847 1289.29,-2847 1289.29,4 -4,4"/>
<!-- unhappy -->
<g id="node1" class="node"><title>unhappy</title>
<path fill="none" stroke="black" d="M306.522,-2843C306.522,-2843 192.927,-2843 192.927,-2843 186.927,-2843 180.927,-2837 180.927,-2831 180.927,-2831 180.927,-2819 180.927,-2819 180.927,-2813 186.927,-2807 192.927,-2807 192.927,-2807 306.522,-2807 306.522,-2807 312.522,-2807 318.522,-2813 318.522,-2819 318.522,-2819 318.522,-2831 318.522,-2831 318.522,-2837 312.522,-2843 306.522,-2843"/>
<text text-anchor="middle" x="249.725" y="-2820.8" font-family="Times,serif" font-size="14.00">React makes you sad.</text>
</g>
<!-- do_you_object_to_patents -->
<g id="node2" class="node"><title>do_you_object_to_patents</title>
<polygon fill="none" stroke="black" points="249.725,-2757 122.086,-2721 249.725,-2685 377.363,-2721 249.725,-2757"/>
<text text-anchor="middle" x="249.725" y="-2723.8" font-family="Times,serif" font-size="14.00">Do you object to</text>
<text text-anchor="middle" x="249.725" y="-2709.8" font-family="Times,serif" font-size="14.00"> &#160;&#160;&#160;software patents?</text>
</g>
<!-- unhappy&#45;&gt;do_you_object_to_patents -->
<g id="edge1" class="edge"><title>unhappy&#45;&gt;do_you_object_to_patents</title>
<path fill="none" stroke="black" d="M244.363,-2806.72C242.875,-2801.12 241.465,-2794.85 240.725,-2789 239.752,-2781.31 239.88,-2773.13 240.606,-2765.22"/>
<polygon fill="black" stroke="black" points="244.11,-2765.4 241.862,-2755.04 237.163,-2764.54 244.11,-2765.4"/>
</g>
<!-- do_you_object_to_patents&#45;&gt;unhappy -->
<g id="edge2" class="edge"><title>do_you_object_to_patents&#45;&gt;unhappy</title>
<path fill="none" stroke="black" d="M249.725,-2757.19C249.725,-2770 249.725,-2784.28 249.725,-2796.35"/>
<polygon fill="black" stroke="black" points="246.225,-2796.7 249.725,-2806.7 253.225,-2796.7 246.225,-2796.7"/>
<text text-anchor="middle" x="259.056" y="-2777.8" font-family="Times,serif" font-size="14.00">yes</text>
</g>
<!-- are_you_using_react_boilerplates -->
<g id="node3" class="node"><title>are_you_using_react_boilerplates</title>
<polygon fill="none" stroke="black" points="249.725,-2635 70.6443,-2585 249.725,-2535 428.805,-2585 249.725,-2635"/>
<text text-anchor="middle" x="249.725" y="-2594.8" font-family="Times,serif" font-size="14.00">Are you learning</text>
<text text-anchor="middle" x="249.725" y="-2580.8" font-family="Times,serif" font-size="14.00"> &#160;&#160;&#160;React by copying from the</text>
<text text-anchor="middle" x="249.725" y="-2566.8" font-family="Times,serif" font-size="14.00"> &#160;&#160;&#160;boilerplate projects?</text>
</g>
<!-- do_you_object_to_patents&#45;&gt;are_you_using_react_boilerplates -->
<g id="edge3" class="edge"><title>do_you_object_to_patents&#45;&gt;are_you_using_react_boilerplates</title>
<path fill="none" stroke="black" d="M249.725,-2684.79C249.725,-2672.68 249.725,-2658.77 249.725,-2645.27"/>
<polygon fill="black" stroke="black" points="253.225,-2645.08 249.725,-2635.08 246.225,-2645.08 253.225,-2645.08"/>
<text text-anchor="middle" x="256.725" y="-2655.8" font-family="Times,serif" font-size="14.00">no</text>
</g>
<!-- boilerplates_dont_teach -->
<g id="node4" class="node"><title>boilerplates_dont_teach</title>
<polygon fill="none" stroke="black" points="297.674,-2485 -0.224949,-2485 -0.224949,-2267 297.674,-2267 297.674,-2485"/>
<text text-anchor="middle" x="148.725" y="-2469.8" font-family="Times,serif" font-size="14.00">Learning React by copying boilerplates</text>
<text text-anchor="middle" x="148.725" y="-2455.8" font-family="Times,serif" font-size="14.00"> &#160;&#160;&#160;is like learning to cook by eating food in</text>
<text text-anchor="middle" x="148.725" y="-2441.8" font-family="Times,serif" font-size="14.00"> &#160;&#160;&#160;fancy restaurants. It doesn’t work. You need</text>
<text text-anchor="middle" x="148.725" y="-2427.8" font-family="Times,serif" font-size="14.00"> &#160;&#160;&#160;to start with basics and ignore the fear of</text>
<text text-anchor="middle" x="148.725" y="-2413.8" font-family="Times,serif" font-size="14.00"> &#160;&#160;&#160;missing out. It’s unfounded. People create</text>
<text text-anchor="middle" x="148.725" y="-2399.8" font-family="Times,serif" font-size="14.00"> &#160;&#160;&#160;boilerplates to show off what they built</text>
<text text-anchor="middle" x="148.725" y="-2385.8" font-family="Times,serif" font-size="14.00"> &#160;&#160;&#160;or learned, not to help you learn. They are</text>
<text text-anchor="middle" x="148.725" y="-2371.8" font-family="Times,serif" font-size="14.00"> &#160;&#160;&#160;created by and for power users, and are often</text>
<text text-anchor="middle" x="148.725" y="-2357.8" font-family="Times,serif" font-size="14.00"> &#160;&#160;&#160;way more experimental than they care to admit.</text>
<text text-anchor="middle" x="148.725" y="-2343.8" font-family="Times,serif" font-size="14.00"> &#160;&#160;&#160;Boilerplates compete for attention which leads</text>
<text text-anchor="middle" x="148.725" y="-2329.8" font-family="Times,serif" font-size="14.00"> &#160;&#160;&#160;to more bloat. If you’re in it for React, learn</text>
<text text-anchor="middle" x="148.725" y="-2315.8" font-family="Times,serif" font-size="14.00"> &#160;&#160;&#160;it in the order Pete Hunt described in his guide:</text>
<text text-anchor="middle" x="148.725" y="-2301.8" font-family="Times,serif" font-size="14.00"> &#160;&#160;&#160;https://github.com/petehunt/react&#45;howto.</text>
<text text-anchor="middle" x="148.725" y="-2287.8" font-family="Times,serif" font-size="14.00"> &#160;&#160;&#160;Look at boilerplates no sooner than you can</text>
<text text-anchor="middle" x="148.725" y="-2273.8" font-family="Times,serif" font-size="14.00"> &#160;&#160;&#160;create your own.</text>
</g>
<!-- are_you_using_react_boilerplates&#45;&gt;boilerplates_dont_teach -->
<g id="edge4" class="edge"><title>are_you_using_react_boilerplates&#45;&gt;boilerplates_dont_teach</title>
<path fill="none" stroke="black" d="M228.675,-2540.86C221.943,-2527.06 214.138,-2511.07 206.097,-2494.58"/>
<polygon fill="black" stroke="black" points="209.141,-2492.84 201.61,-2485.39 202.85,-2495.91 209.141,-2492.84"/>
<text text-anchor="middle" x="224.056" y="-2505.8" font-family="Times,serif" font-size="14.00">yes</text>
</g>
<!-- steal_from_boilerplates -->
<g id="node5" class="node"><title>steal_from_boilerplates</title>
<polygon fill="none" stroke="black" points="635.043,-2450 340.406,-2450 340.406,-2302 635.043,-2302 635.043,-2450"/>
<text text-anchor="middle" x="487.725" y="-2434.8" font-family="Times,serif" font-size="14.00">While boilerplates are not a good</text>
<text text-anchor="middle" x="487.725" y="-2420.8" font-family="Times,serif" font-size="14.00"> &#160;&#160;&#160;way to learn the technologies they combine,</text>
<text text-anchor="middle" x="487.725" y="-2406.8" font-family="Times,serif" font-size="14.00"> &#160;&#160;&#160;they are useful to see how these technologies</text>
<text text-anchor="middle" x="487.725" y="-2392.8" font-family="Times,serif" font-size="14.00"> &#160;&#160;&#160;can be tied together *after* you’re comfortable</text>
<text text-anchor="middle" x="487.725" y="-2378.8" font-family="Times,serif" font-size="14.00"> &#160;&#160;&#160;with each of them independently. It’s a great</text>
<text text-anchor="middle" x="487.725" y="-2364.8" font-family="Times,serif" font-size="14.00"> &#160;&#160;&#160;way to discover new technologies but you</text>
<text text-anchor="middle" x="487.725" y="-2350.8" font-family="Times,serif" font-size="14.00"> &#160;&#160;&#160;shouldn’t feel obligated to use them at all.</text>
<text text-anchor="middle" x="487.725" y="-2336.8" font-family="Times,serif" font-size="14.00"> &#160;&#160;&#160;Don’t give up on boilerplates completely.</text>
<text text-anchor="middle" x="487.725" y="-2322.8" font-family="Times,serif" font-size="14.00"> &#160;&#160;&#160;Just keep in mind that a boilerplate is</text>
<text text-anchor="middle" x="487.725" y="-2308.8" font-family="Times,serif" font-size="14.00"> &#160;&#160;&#160;a bag of tricks, not a solid base for your app.</text>
</g>
<!-- are_you_using_react_boilerplates&#45;&gt;steal_from_boilerplates -->
<g id="edge5" class="edge"><title>are_you_using_react_boilerplates&#45;&gt;steal_from_boilerplates</title>
<path fill="none" stroke="black" d="M292.549,-2546.75C321.166,-2521.86 359.922,-2488.16 395.357,-2457.34"/>
<polygon fill="black" stroke="black" points="398.086,-2459.6 403.334,-2450.4 393.492,-2454.32 398.086,-2459.6"/>
<text text-anchor="middle" x="347.725" y="-2505.8" font-family="Times,serif" font-size="14.00">no</text>
</g>
<!-- are_you_using_flux -->
<g id="node6" class="node"><title>are_you_using_flux</title>
<polygon fill="none" stroke="black" points="353.725,-2230 247.31,-2180 353.725,-2130 460.139,-2180 353.725,-2230"/>
<text text-anchor="middle" x="353.725" y="-2189.8" font-family="Times,serif" font-size="14.00">Are you using</text>
<text text-anchor="middle" x="353.725" y="-2175.8" font-family="Times,serif" font-size="14.00"> &#160;&#160;&#160;a Flux library</text>
<text text-anchor="middle" x="353.725" y="-2161.8" font-family="Times,serif" font-size="14.00"> &#160;&#160;&#160;(or Redux)?</text>
</g>
<!-- boilerplates_dont_teach&#45;&gt;are_you_using_flux -->
<g id="edge6" class="edge"><title>boilerplates_dont_teach&#45;&gt;are_you_using_flux</title>
<path fill="none" stroke="black" d="M262.913,-2266.94C280.294,-2250.49 297.22,-2234.47 311.658,-2220.81"/>
<polygon fill="black" stroke="black" points="314.112,-2223.31 318.97,-2213.89 309.301,-2218.22 314.112,-2223.31"/>
</g>
<!-- steal_from_boilerplates&#45;&gt;are_you_using_flux -->
<g id="edge7" class="edge"><title>steal_from_boilerplates&#45;&gt;are_you_using_flux</title>
<path fill="none" stroke="black" d="M437.256,-2301.93C419.757,-2276.6 400.654,-2248.94 385.137,-2226.48"/>
<polygon fill="black" stroke="black" points="387.94,-2224.38 379.377,-2218.14 382.181,-2228.36 387.94,-2224.38"/>
</g>
<!-- is_too_much_flux -->
<g id="node7" class="node"><title>is_too_much_flux</title>
<polygon fill="none" stroke="black" points="229.725,-2066 84.2656,-2016 229.725,-1966 375.184,-2016 229.725,-2066"/>
<text text-anchor="middle" x="229.725" y="-2025.8" font-family="Times,serif" font-size="14.00">Does it add</text>
<text text-anchor="middle" x="229.725" y="-2011.8" font-family="Times,serif" font-size="14.00"> &#160;&#160;&#160;a lot of boilerplate</text>
<text text-anchor="middle" x="229.725" y="-1997.8" font-family="Times,serif" font-size="14.00"> &#160;&#160;&#160;for no obvious gain?</text>
</g>
<!-- are_you_using_flux&#45;&gt;is_too_much_flux -->
<g id="edge8" class="edge"><title>are_you_using_flux&#45;&gt;is_too_much_flux</title>
<path fill="none" stroke="black" d="M325.897,-2142.64C308.19,-2119.51 285.077,-2089.31 265.947,-2064.32"/>
<polygon fill="black" stroke="black" points="268.483,-2061.88 259.625,-2056.06 262.924,-2066.13 268.483,-2061.88"/>
<text text-anchor="middle" x="309.056" y="-2100.8" font-family="Times,serif" font-size="14.00">yes</text>
</g>
<!-- is_not_enough_flux -->
<g id="node8" class="node"><title>is_not_enough_flux</title>
<polygon fill="none" stroke="black" points="660.725,-2080 417.892,-2016 660.725,-1952 903.557,-2016 660.725,-2080"/>
<text text-anchor="middle" x="660.725" y="-2032.8" font-family="Times,serif" font-size="14.00">Do you have a few</text>
<text text-anchor="middle" x="660.725" y="-2018.8" font-family="Times,serif" font-size="14.00"> &#160;&#160;&#160;bloated stateful components at the top</text>
<text text-anchor="middle" x="660.725" y="-2004.8" font-family="Times,serif" font-size="14.00"> &#160;&#160;&#160;of your component hierarchy that are</text>
<text text-anchor="middle" x="660.725" y="-1990.8" font-family="Times,serif" font-size="14.00"> &#160;&#160;&#160;often the source of bugs?</text>
</g>
<!-- are_you_using_flux&#45;&gt;is_not_enough_flux -->
<g id="edge9" class="edge"><title>are_you_using_flux&#45;&gt;is_not_enough_flux</title>
<path fill="none" stroke="black" d="M403.049,-2152.97C448.487,-2128.99 516.984,-2092.85 571.936,-2063.85"/>
<polygon fill="black" stroke="black" points="573.77,-2066.84 580.981,-2059.08 570.503,-2060.65 573.77,-2066.84"/>
<text text-anchor="middle" x="514.725" y="-2100.8" font-family="Times,serif" font-size="14.00">no</text>
</g>
<!-- remove_flux -->
<g id="node9" class="node"><title>remove_flux</title>
<polygon fill="none" stroke="black" points="326.053,-1902 71.3963,-1902 71.3963,-1838 326.053,-1838 326.053,-1902"/>
<text text-anchor="middle" x="198.725" y="-1886.8" font-family="Times,serif" font-size="14.00">Remove the Flux library.</text>
<text text-anchor="middle" x="198.725" y="-1872.8" font-family="Times,serif" font-size="14.00"> &#160;&#160;&#160;Get a good feel for structuring</text>
<text text-anchor="middle" x="198.725" y="-1858.8" font-family="Times,serif" font-size="14.00"> &#160;&#160;&#160;apps in vanilla React by reading</text>
<text text-anchor="middle" x="198.725" y="-1844.8" font-family="Times,serif" font-size="14.00"> &#160;&#160;&#160;“Thinking in React” in the official docs.</text>
</g>
<!-- is_too_much_flux&#45;&gt;remove_flux -->
<g id="edge10" class="edge"><title>is_too_much_flux&#45;&gt;remove_flux</title>
<path fill="none" stroke="black" d="M219.831,-1969.04C215.92,-1950.88 211.46,-1930.16 207.65,-1912.46"/>
<polygon fill="black" stroke="black" points="211.017,-1911.47 205.491,-1902.43 204.174,-1912.94 211.017,-1911.47"/>
<text text-anchor="middle" x="221.056" y="-1922.8" font-family="Times,serif" font-size="14.00">yes</text>
</g>
<!-- are_you_using_bundler -->
<g id="node10" class="node"><title>are_you_using_bundler</title>
<polygon fill="none" stroke="black" points="461.725,-1801 270.758,-1751 461.725,-1701 652.692,-1751 461.725,-1801"/>
<text text-anchor="middle" x="461.725" y="-1760.8" font-family="Times,serif" font-size="14.00">Are you using</text>
<text text-anchor="middle" x="461.725" y="-1746.8" font-family="Times,serif" font-size="14.00"> &#160;&#160;&#160;a JavaScript bundler</text>
<text text-anchor="middle" x="461.725" y="-1732.8" font-family="Times,serif" font-size="14.00"> &#160;&#160;&#160;(e.g. Webpack, Browserify)?</text>
</g>
<!-- is_too_much_flux&#45;&gt;are_you_using_bundler -->
<g id="edge11" class="edge"><title>is_too_much_flux&#45;&gt;are_you_using_bundler</title>
<path fill="none" stroke="black" d="M269.775,-1979.57C293.362,-1958 323.271,-1929.41 347.725,-1902 376.187,-1870.1 405.304,-1831.67 426.987,-1801.69"/>
<polygon fill="black" stroke="black" points="429.9,-1803.64 432.899,-1793.48 424.218,-1799.55 429.9,-1803.64"/>
<text text-anchor="middle" x="407.725" y="-1865.8" font-family="Times,serif" font-size="14.00">no</text>
</g>
<!-- is_not_enough_flux&#45;&gt;are_you_using_bundler -->
<g id="edge13" class="edge"><title>is_not_enough_flux&#45;&gt;are_you_using_bundler</title>
<path fill="none" stroke="black" d="M597.878,-1968.31C575.381,-1949.46 551.076,-1926.4 532.725,-1902 510.926,-1873.02 493.398,-1836.27 481.212,-1806.4"/>
<polygon fill="black" stroke="black" points="484.403,-1804.95 477.444,-1796.96 477.902,-1807.55 484.403,-1804.95"/>
<text text-anchor="middle" x="539.725" y="-1865.8" font-family="Times,serif" font-size="14.00">no</text>
</g>
<!-- add_flux -->
<g id="node11" class="node"><title>add_flux</title>
<polygon fill="none" stroke="black" points="791.164,-1902 568.286,-1902 568.286,-1838 791.164,-1838 791.164,-1902"/>
<text text-anchor="middle" x="679.725" y="-1886.8" font-family="Times,serif" font-size="14.00">Consider adding a Flux library.</text>
<text text-anchor="middle" x="679.725" y="-1872.8" font-family="Times,serif" font-size="14.00"> &#160;&#160;&#160;It can help externalize the state</text>
<text text-anchor="middle" x="679.725" y="-1858.8" font-family="Times,serif" font-size="14.00"> &#160;&#160;&#160;shared between many components</text>
<text text-anchor="middle" x="679.725" y="-1844.8" font-family="Times,serif" font-size="14.00"> &#160;&#160;&#160;and update it consistently.</text>
</g>
<!-- is_not_enough_flux&#45;&gt;add_flux -->
<g id="edge12" class="edge"><title>is_not_enough_flux&#45;&gt;add_flux</title>
<path fill="none" stroke="black" d="M668.782,-1953.93C670.634,-1939.9 672.56,-1925.3 674.271,-1912.33"/>
<polygon fill="black" stroke="black" points="677.753,-1912.7 675.592,-1902.32 670.814,-1911.78 677.753,-1912.7"/>
<text text-anchor="middle" x="682.056" y="-1922.8" font-family="Times,serif" font-size="14.00">yes</text>
</g>
<!-- remove_flux&#45;&gt;are_you_using_bundler -->
<g id="edge15" class="edge"><title>remove_flux&#45;&gt;are_you_using_bundler</title>
<path fill="none" stroke="black" d="M268.513,-1837.95C303.577,-1822.35 346.21,-1803.39 382.5,-1787.24"/>
<polygon fill="black" stroke="black" points="384.352,-1790.25 392.067,-1782.99 381.507,-1783.86 384.352,-1790.25"/>
</g>
<!-- are_you_working_on_production_app_with_bundler -->
<g id="node12" class="node"><title>are_you_working_on_production_app_with_bundler</title>
<polygon fill="none" stroke="black" points="360.725,-1651 213.131,-1615 360.725,-1579 508.319,-1615 360.725,-1651"/>
<text text-anchor="middle" x="360.725" y="-1617.8" font-family="Times,serif" font-size="14.00">Are you working</text>
<text text-anchor="middle" x="360.725" y="-1603.8" font-family="Times,serif" font-size="14.00"> &#160;&#160;&#160;on a production app?</text>
</g>
<!-- are_you_using_bundler&#45;&gt;are_you_working_on_production_app_with_bundler -->
<g id="edge16" class="edge"><title>are_you_using_bundler&#45;&gt;are_you_working_on_production_app_with_bundler</title>
<path fill="none" stroke="black" d="M430.872,-1709.07C417.611,-1691.47 402.208,-1671.04 389.22,-1653.81"/>
<polygon fill="black" stroke="black" points="391.872,-1651.51 383.058,-1645.63 386.282,-1655.72 391.872,-1651.51"/>
<text text-anchor="middle" x="421.056" y="-1671.8" font-family="Times,serif" font-size="14.00">yes</text>
</g>
<!-- are_you_working_on_production_app_without_bundler -->
<g id="node13" class="node"><title>are_you_working_on_production_app_without_bundler</title>
<polygon fill="none" stroke="black" points="699.725,-1651 552.131,-1615 699.725,-1579 847.319,-1615 699.725,-1651"/>
<text text-anchor="middle" x="699.725" y="-1617.8" font-family="Times,serif" font-size="14.00">Are you working</text>
<text text-anchor="middle" x="699.725" y="-1603.8" font-family="Times,serif" font-size="14.00"> &#160;&#160;&#160;on a production app?</text>
</g>
<!-- are_you_using_bundler&#45;&gt;are_you_working_on_production_app_without_bundler -->
<g id="edge17" class="edge"><title>are_you_using_bundler&#45;&gt;are_you_working_on_production_app_without_bundler</title>
<path fill="none" stroke="black" d="M521.168,-1716.53C559.754,-1694.81 609.596,-1666.74 646.81,-1645.79"/>
<polygon fill="black" stroke="black" points="648.988,-1648.58 655.985,-1640.63 645.554,-1642.48 648.988,-1648.58"/>
<text text-anchor="middle" x="608.725" y="-1671.8" font-family="Times,serif" font-size="14.00">no</text>
</g>
<!-- add_flux&#45;&gt;are_you_using_bundler -->
<g id="edge14" class="edge"><title>add_flux&#45;&gt;are_you_using_bundler</title>
<path fill="none" stroke="black" d="M621.877,-1837.95C594.327,-1823.17 561.139,-1805.36 532.136,-1789.79"/>
<polygon fill="black" stroke="black" points="533.747,-1786.68 523.281,-1785.04 530.437,-1792.85 533.747,-1786.68"/>
</g>
<!-- do_you_know_es2015 -->
<g id="node14" class="node"><title>do_you_know_es2015</title>
<polygon fill="none" stroke="black" points="588.725,-1386 361.496,-1336 588.725,-1286 815.953,-1336 588.725,-1386"/>
<text text-anchor="middle" x="588.725" y="-1345.8" font-family="Times,serif" font-size="14.00">Do you feel</text>
<text text-anchor="middle" x="588.725" y="-1331.8" font-family="Times,serif" font-size="14.00"> &#160;&#160;&#160;comfortable using ES2015 features</text>
<text text-anchor="middle" x="588.725" y="-1317.8" font-family="Times,serif" font-size="14.00"> &#160;&#160;&#160;(e.g. classes and fat arrows)?</text>
</g>
<!-- are_you_working_on_production_app_with_bundler&#45;&gt;do_you_know_es2015 -->
<g id="edge18" class="edge"><title>are_you_working_on_production_app_with_bundler&#45;&gt;do_you_know_es2015</title>
<path fill="none" stroke="black" d="M305.257,-1592.49C277.972,-1578.76 247.661,-1558 232.062,-1529 209.746,-1487.51 202.915,-1460.01 232.062,-1423 257.603,-1390.57 348.714,-1368.93 432.449,-1355.47"/>
<polygon fill="black" stroke="black" points="433.022,-1358.93 442.355,-1353.91 431.933,-1352.01 433.022,-1358.93"/>
<text text-anchor="middle" x="242.056" y="-1471.8" font-family="Times,serif" font-size="14.00">yes</text>
</g>
<!-- remove_bundler -->
<g id="node15" class="node"><title>remove_bundler</title>
<polygon fill="none" stroke="black" points="575.143,-1529 272.307,-1529 272.307,-1423 575.143,-1423 575.143,-1529"/>
<text text-anchor="middle" x="423.725" y="-1513.8" font-family="Times,serif" font-size="14.00">There is no need for a bundler</text>
<text text-anchor="middle" x="423.725" y="-1499.8" font-family="Times,serif" font-size="14.00"> &#160;&#160;&#160;if you are just learning React.</text>
<text text-anchor="middle" x="423.725" y="-1485.8" font-family="Times,serif" font-size="14.00"> &#160;&#160;&#160;Copy https://github.com/jarsbe/react&#45;simple</text>
<text text-anchor="middle" x="423.725" y="-1471.8" font-family="Times,serif" font-size="14.00"> &#160;&#160;&#160;and start hacking with no build step.</text>
<text text-anchor="middle" x="423.725" y="-1457.8" font-family="Times,serif" font-size="14.00"> &#160;&#160;&#160;Use &lt;script&gt; tags until you are comfortable</text>
<text text-anchor="middle" x="423.725" y="-1443.8" font-family="Times,serif" font-size="14.00"> &#160;&#160;&#160;with React and want to learn more about module</text>
<text text-anchor="middle" x="423.725" y="-1429.8" font-family="Times,serif" font-size="14.00"> &#160;&#160;&#160;systems and different bundlers.</text>
</g>
<!-- are_you_working_on_production_app_with_bundler&#45;&gt;remove_bundler -->
<g id="edge19" class="edge"><title>are_you_working_on_production_app_with_bundler&#45;&gt;remove_bundler</title>
<path fill="none" stroke="black" d="M375.336,-1582.23C381.327,-1569.2 388.474,-1553.66 395.412,-1538.57"/>
<polygon fill="black" stroke="black" points="398.695,-1539.81 399.694,-1529.26 392.336,-1536.88 398.695,-1539.81"/>
<text text-anchor="middle" x="397.725" y="-1549.8" font-family="Times,serif" font-size="14.00">no</text>
</g>
<!-- are_you_working_on_production_app_without_bundler&#45;&gt;do_you_know_es2015 -->
<g id="edge21" class="edge"><title>are_you_working_on_production_app_without_bundler&#45;&gt;do_you_know_es2015</title>
<path fill="none" stroke="black" d="M686.883,-1581.95C668.271,-1535.51 633.543,-1448.84 610.782,-1392.04"/>
<polygon fill="black" stroke="black" points="613.926,-1390.48 606.957,-1382.5 607.428,-1393.08 613.926,-1390.48"/>
<text text-anchor="middle" x="670.725" y="-1471.8" font-family="Times,serif" font-size="14.00">no</text>
</g>
<!-- add_bundler -->
<g id="node16" class="node"><title>add_bundler</title>
<polygon fill="none" stroke="black" points="976.175,-1529 717.274,-1529 717.274,-1423 976.175,-1423 976.175,-1529"/>
<text text-anchor="middle" x="846.725" y="-1513.8" font-family="Times,serif" font-size="14.00">Add a bundler as a build step</text>
<text text-anchor="middle" x="846.725" y="-1499.8" font-family="Times,serif" font-size="14.00"> &#160;&#160;&#160;to keep dependencies manageable</text>
<text text-anchor="middle" x="846.725" y="-1485.8" font-family="Times,serif" font-size="14.00"> &#160;&#160;&#160;and serve the JavaScript code efficiently.</text>
<text text-anchor="middle" x="846.725" y="-1471.8" font-family="Times,serif" font-size="14.00"> &#160;&#160;&#160;Use Google Page Speed insights tool</text>
<text text-anchor="middle" x="846.725" y="-1457.8" font-family="Times,serif" font-size="14.00"> &#160;&#160;&#160;to gauge how well you are doing.</text>
<text text-anchor="middle" x="846.725" y="-1443.8" font-family="Times,serif" font-size="14.00"> &#160;&#160;&#160;Remember to minify and envify</text>
<text text-anchor="middle" x="846.725" y="-1429.8" font-family="Times,serif" font-size="14.00"> &#160;&#160;&#160;your code.</text>
</g>
<!-- are_you_working_on_production_app_without_bundler&#45;&gt;add_bundler -->
<g id="edge20" class="edge"><title>are_you_working_on_production_app_without_bundler&#45;&gt;add_bundler</title>
<path fill="none" stroke="black" d="M729.827,-1585.95C745.325,-1571.5 764.834,-1553.32 783.451,-1535.97"/>
<polygon fill="black" stroke="black" points="785.876,-1538.49 790.805,-1529.12 781.104,-1533.37 785.876,-1538.49"/>
<text text-anchor="middle" x="778.056" y="-1549.8" font-family="Times,serif" font-size="14.00">yes</text>
</g>
<!-- use_es5 -->
<g id="node17" class="node"><title>use_es5</title>
<polygon fill="none" stroke="black" points="727.318,-1090 388.131,-1090 388.131,-942 727.318,-942 727.318,-1090"/>
<text text-anchor="middle" x="557.725" y="-1074.8" font-family="Times,serif" font-size="14.00">Don’t use ES2015 yet.</text>
<text text-anchor="middle" x="557.725" y="-1060.8" font-family="Times,serif" font-size="14.00"> &#160;&#160;&#160;You don’t need it to learn React.</text>
<text text-anchor="middle" x="557.725" y="-1046.8" font-family="Times,serif" font-size="14.00"> &#160;&#160;&#160;Third&#45;party libraries will often use</text>
<text text-anchor="middle" x="557.725" y="-1032.8" font-family="Times,serif" font-size="14.00"> &#160;&#160;&#160;ES2015 syntax in their documentation but</text>
<text text-anchor="middle" x="557.725" y="-1018.8" font-family="Times,serif" font-size="14.00"> &#160;&#160;&#160;you don’t need third&#45;party libraries when</text>
<text text-anchor="middle" x="557.725" y="-1004.8" font-family="Times,serif" font-size="14.00"> &#160;&#160;&#160;you are just learning React itself.</text>
<text text-anchor="middle" x="557.725" y="-990.8" font-family="Times,serif" font-size="14.00"> &#160;&#160;&#160;When you feel like updating your JavaScript</text>
<text text-anchor="middle" x="557.725" y="-976.8" font-family="Times,serif" font-size="14.00"> &#160;&#160;&#160;knowledge, https://leanpub.com/understandinges6/read</text>
<text text-anchor="middle" x="557.725" y="-962.8" font-family="Times,serif" font-size="14.00"> &#160;&#160;&#160;is an amazing guide. Use http://babeljs.io/repl</text>
<text text-anchor="middle" x="557.725" y="-948.8" font-family="Times,serif" font-size="14.00"> &#160;&#160;&#160;to verify your assumptions.</text>
</g>
<!-- do_you_know_es2015&#45;&gt;use_es5 -->
<g id="edge24" class="edge"><title>do_you_know_es2015&#45;&gt;use_es5</title>
<path fill="none" stroke="black" d="M584.016,-1286.7C579.197,-1237.26 571.614,-1159.48 565.828,-1100.12"/>
<polygon fill="black" stroke="black" points="569.296,-1099.63 564.842,-1090.01 562.329,-1100.31 569.296,-1099.63"/>
<text text-anchor="middle" x="588.725" y="-1256.8" font-family="Times,serif" font-size="14.00">no</text>
</g>
<!-- are_you_using_dangerous_features -->
<g id="node18" class="node"><title>are_you_using_dangerous_features</title>
<polygon fill="none" stroke="black" points="828.725,-1236 622.92,-1172 828.725,-1108 1034.53,-1172 828.725,-1236"/>
<text text-anchor="middle" x="828.725" y="-1188.8" font-family="Times,serif" font-size="14.00">Are you using</text>
<text text-anchor="middle" x="828.725" y="-1174.8" font-family="Times,serif" font-size="14.00"> &#160;&#160;&#160;experimental language features</text>
<text text-anchor="middle" x="828.725" y="-1160.8" font-family="Times,serif" font-size="14.00"> &#160;&#160;&#160;that didn’t make it into ES2015</text>
<text text-anchor="middle" x="828.725" y="-1146.8" font-family="Times,serif" font-size="14.00"> &#160;&#160;&#160;(e.g. decorators)?</text>
</g>
<!-- do_you_know_es2015&#45;&gt;are_you_using_dangerous_features -->
<g id="edge25" class="edge"><title>do_you_know_es2015&#45;&gt;are_you_using_dangerous_features</title>
<path fill="none" stroke="black" d="M643.485,-1298.04C676.785,-1275.56 719.716,-1246.58 755.862,-1222.18"/>
<polygon fill="black" stroke="black" points="758.086,-1224.9 764.416,-1216.41 754.17,-1219.1 758.086,-1224.9"/>
<text text-anchor="middle" x="718.056" y="-1256.8" font-family="Times,serif" font-size="14.00">yes</text>
</g>
<!-- remove_bundler&#45;&gt;do_you_know_es2015 -->
<g id="edge23" class="edge"><title>remove_bundler&#45;&gt;do_you_know_es2015</title>
<path fill="none" stroke="black" d="M486.104,-1422.83C501.958,-1409.57 518.867,-1395.43 534.29,-1382.53"/>
<polygon fill="black" stroke="black" points="536.782,-1385.01 542.207,-1375.91 532.291,-1379.64 536.782,-1385.01"/>
</g>
<!-- add_bundler&#45;&gt;do_you_know_es2015 -->
<g id="edge22" class="edge"><title>add_bundler&#45;&gt;do_you_know_es2015</title>
<path fill="none" stroke="black" d="M749.186,-1422.83C720.596,-1407.54 689.811,-1391.07 662.926,-1376.69"/>
<polygon fill="black" stroke="black" points="664.436,-1373.53 653.967,-1371.9 661.134,-1379.7 664.436,-1373.53"/>
</g>
<!-- do_you_update_packages_asap -->
<g id="node19" class="node"><title>do_you_update_packages_asap</title>
<polygon fill="none" stroke="black" points="811.725,-673 575.627,-623 811.725,-573 1047.82,-623 811.725,-673"/>
<text text-anchor="middle" x="811.725" y="-632.8" font-family="Times,serif" font-size="14.00">Do you update to new</text>
<text text-anchor="middle" x="811.725" y="-618.8" font-family="Times,serif" font-size="14.00"> &#160;&#160;&#160;major versions of your dependencies</text>
<text text-anchor="middle" x="811.725" y="-604.8" font-family="Times,serif" font-size="14.00"> &#160;&#160;&#160;as they come out?</text>
</g>
<!-- use_es5&#45;&gt;do_you_update_packages_asap -->
<g id="edge26" class="edge"><title>use_es5&#45;&gt;do_you_update_packages_asap</title>
<path fill="none" stroke="black" d="M583.822,-941.834C611.084,-872.24 658.808,-767.152 722.725,-691 729.674,-682.72 737.831,-674.863 746.337,-667.637"/>
<polygon fill="black" stroke="black" points="748.7,-670.226 754.223,-661.185 744.267,-664.809 748.7,-670.226"/>
</g>
<!-- are_you_using_dangerous_features&#45;&gt;do_you_update_packages_asap -->
<g id="edge28" class="edge"><title>are_you_using_dangerous_features&#45;&gt;do_you_update_packages_asap</title>
<path fill="none" stroke="black" d="M819.347,-1110.79C812.073,-1060.89 802.599,-988.031 798.725,-924 795.289,-867.215 796.579,-852.848 798.725,-796 800.157,-758.033 803.363,-715.452 806.232,-682.156"/>
<polygon fill="black" stroke="black" points="809.724,-682.403 807.11,-672.136 802.751,-681.792 809.724,-682.403"/>
<text text-anchor="middle" x="806.725" y="-766.8" font-family="Times,serif" font-size="14.00">no</text>
</g>
<!-- can_you_spend_days_on_your_tooling -->
<g id="node20" class="node"><title>can_you_spend_days_on_your_tooling</title>
<polygon fill="none" stroke="black" points="1052.72,-924 820.086,-860 1052.72,-796 1285.36,-860 1052.72,-924"/>
<text text-anchor="middle" x="1052.72" y="-876.8" font-family="Times,serif" font-size="14.00">Can you spend days on</text>
<text text-anchor="middle" x="1052.72" y="-862.8" font-family="Times,serif" font-size="14.00"> &#160;&#160;&#160;fixing your tooling every few weeks</text>
<text text-anchor="middle" x="1052.72" y="-848.8" font-family="Times,serif" font-size="14.00"> &#160;&#160;&#160;due to bugs, incompatibilities,</text>
<text text-anchor="middle" x="1052.72" y="-834.8" font-family="Times,serif" font-size="14.00"> &#160;&#160;&#160;and standard changes?</text>
</g>
<!-- are_you_using_dangerous_features&#45;&gt;can_you_spend_days_on_your_tooling -->
<g id="edge27" class="edge"><title>are_you_using_dangerous_features&#45;&gt;can_you_spend_days_on_your_tooling</title>
<path fill="none" stroke="black" d="M865.965,-1119.46C905.213,-1065.15 967.002,-979.634 1008.65,-921.994"/>
<polygon fill="black" stroke="black" points="1011.63,-923.854 1014.65,-913.699 1005.95,-919.755 1011.63,-923.854"/>
<text text-anchor="middle" x="1001.06" y="-1011.8" font-family="Times,serif" font-size="14.00">yes</text>
</g>
<!-- give_it_two_months -->
<g id="node22" class="node"><title>give_it_two_months</title>
<polygon fill="none" stroke="black" points="877.46,-523 547.989,-523 547.989,-375 877.46,-375 877.46,-523"/>
<text text-anchor="middle" x="712.725" y="-507.8" font-family="Times,serif" font-size="14.00">Unless we are talking about React</text>
<text text-anchor="middle" x="712.725" y="-493.8" font-family="Times,serif" font-size="14.00"> &#160;&#160;&#160;which is tested heavily before every release,</text>
<text text-anchor="middle" x="712.725" y="-479.8" font-family="Times,serif" font-size="14.00"> &#160;&#160;&#160;consider slowing down rate of package updates.</text>
<text text-anchor="middle" x="712.725" y="-465.8" font-family="Times,serif" font-size="14.00"> &#160;&#160;&#160;You can try new versions of the dependencies but</text>
<text text-anchor="middle" x="712.725" y="-451.8" font-family="Times,serif" font-size="14.00"> &#160;&#160;&#160;it’s best to keep them in a branch for a couple of</text>
<text text-anchor="middle" x="712.725" y="-437.8" font-family="Times,serif" font-size="14.00"> &#160;&#160;&#160;months until the community finds and fixes the</text>
<text text-anchor="middle" x="712.725" y="-423.8" font-family="Times,serif" font-size="14.00"> &#160;&#160;&#160;most common issues. Don’t make decisions based on</text>
<text text-anchor="middle" x="712.725" y="-409.8" font-family="Times,serif" font-size="14.00"> &#160;&#160;&#160;the fear of missing out! When looking for older docs,</text>
<text text-anchor="middle" x="712.725" y="-395.8" font-family="Times,serif" font-size="14.00"> &#160;&#160;&#160;don’t forget to check tagged releases on GitHub, e.g.</text>
<text text-anchor="middle" x="712.725" y="-381.8" font-family="Times,serif" font-size="14.00"> &#160;&#160;&#160;https://github.com/reactjs/react&#45;router/tree/0.13.x/doc</text>
</g>
<!-- do_you_update_packages_asap&#45;&gt;give_it_two_months -->
<g id="edge32" class="edge"><title>do_you_update_packages_asap&#45;&gt;give_it_two_months</title>
<path fill="none" stroke="black" d="M786.487,-578.152C778.366,-564.044 769.088,-547.925 759.916,-531.989"/>
<polygon fill="black" stroke="black" points="762.862,-530.09 754.84,-523.17 756.795,-533.582 762.862,-530.09"/>
<text text-anchor="middle" x="780.056" y="-543.8" font-family="Times,serif" font-size="14.00">yes</text>
</g>
<!-- consider_updating_react -->
<g id="node23" class="node"><title>consider_updating_react</title>
<polygon fill="none" stroke="black" points="1171.44,-523 920.014,-523 920.014,-375 1171.44,-375 1171.44,-523"/>
<text text-anchor="middle" x="1045.72" y="-507.8" font-family="Times,serif" font-size="14.00">This is a good call.</text>
<text text-anchor="middle" x="1045.72" y="-493.8" font-family="Times,serif" font-size="14.00"> &#160;&#160;&#160;However we encourage you to</text>
<text text-anchor="middle" x="1045.72" y="-479.8" font-family="Times,serif" font-size="14.00"> &#160;&#160;&#160;try (in a branch!) new versions of</text>
<text text-anchor="middle" x="1045.72" y="-465.8" font-family="Times,serif" font-size="14.00"> &#160;&#160;&#160;React as soon as they come out.</text>
<text text-anchor="middle" x="1045.72" y="-451.8" font-family="Times,serif" font-size="14.00"> &#160;&#160;&#160;Unlike many community packages,</text>
<text text-anchor="middle" x="1045.72" y="-437.8" font-family="Times,serif" font-size="14.00"> &#160;&#160;&#160;they are tested heavily by Facebook.</text>
<text text-anchor="middle" x="1045.72" y="-423.8" font-family="Times,serif" font-size="14.00"> &#160;&#160;&#160;Keep an eye on the release notes</text>
<text text-anchor="middle" x="1045.72" y="-409.8" font-family="Times,serif" font-size="14.00"> &#160;&#160;&#160;as they link to the codemods that</text>
<text text-anchor="middle" x="1045.72" y="-395.8" font-family="Times,serif" font-size="14.00"> &#160;&#160;&#160;automate parts of the migration process</text>
<text text-anchor="middle" x="1045.72" y="-381.8" font-family="Times,serif" font-size="14.00"> &#160;&#160;&#160;for you.</text>
</g>
<!-- do_you_update_packages_asap&#45;&gt;consider_updating_react -->
<g id="edge33" class="edge"><title>do_you_update_packages_asap&#45;&gt;consider_updating_react</title>
<path fill="none" stroke="black" d="M863.657,-583.828C885.648,-567.663 912.135,-548.194 938.013,-529.173"/>
<polygon fill="black" stroke="black" points="940.402,-531.76 946.387,-523.018 936.256,-526.12 940.402,-531.76"/>
<text text-anchor="middle" x="927.725" y="-543.8" font-family="Times,serif" font-size="14.00">no</text>
</g>
<!-- can_you_spend_days_on_your_tooling&#45;&gt;do_you_update_packages_asap -->
<g id="edge29" class="edge"><title>can_you_spend_days_on_your_tooling&#45;&gt;do_you_update_packages_asap</title>
<path fill="none" stroke="black" d="M979.974,-815.729C951.044,-796.512 918.632,-772.293 893.062,-746 873.164,-725.539 855.094,-699.6 841.067,-676.905"/>
<polygon fill="black" stroke="black" points="843.88,-674.793 835.7,-668.06 837.895,-678.425 843.88,-674.793"/>
<text text-anchor="middle" x="902.056" y="-723.8" font-family="Times,serif" font-size="14.00">yes</text>
</g>
<!-- stick_to_es2015 -->
<g id="node21" class="node"><title>stick_to_es2015</title>
<polygon fill="none" stroke="black" points="1144.4,-746 933.045,-746 933.045,-710 1144.4,-710 1144.4,-746"/>
<text text-anchor="middle" x="1038.72" y="-730.8" font-family="Times,serif" font-size="14.00">Stick to using at most ES2015,</text>
<text text-anchor="middle" x="1038.72" y="-716.8" font-family="Times,serif" font-size="14.00"> &#160;&#160;&#160;JSX, and object spread operator.</text>
</g>
<!-- can_you_spend_days_on_your_tooling&#45;&gt;stick_to_es2015 -->
<g id="edge30" class="edge"><title>can_you_spend_days_on_your_tooling&#45;&gt;stick_to_es2015</title>
<path fill="none" stroke="black" d="M1046.13,-797.807C1044.57,-783.286 1042.98,-768.51 1041.67,-756.393"/>
<polygon fill="black" stroke="black" points="1045.12,-755.663 1040.57,-746.095 1038.16,-756.413 1045.12,-755.663"/>
<text text-anchor="middle" x="1049.72" y="-766.8" font-family="Times,serif" font-size="14.00">no</text>
</g>
<!-- stick_to_es2015&#45;&gt;do_you_update_packages_asap -->
<g id="edge31" class="edge"><title>stick_to_es2015&#45;&gt;do_you_update_packages_asap</title>
<path fill="none" stroke="black" d="M1001.24,-709.992C972.334,-696.876 931.254,-678.236 894.726,-661.661"/>
<polygon fill="black" stroke="black" points="896.1,-658.442 885.548,-657.497 893.208,-664.816 896.1,-658.442"/>
</g>
<!-- are_you_still_sad -->
<g id="node24" class="node"><title>are_you_still_sad</title>
<polygon fill="none" stroke="black" points="914.725,-338 812.387,-320 914.725,-302 1017.06,-320 914.725,-338"/>
<text text-anchor="middle" x="914.725" y="-315.8" font-family="Times,serif" font-size="14.00">Are you still sad?</text>
</g>
<!-- give_it_two_months&#45;&gt;are_you_still_sad -->
<g id="edge34" class="edge"><title>give_it_two_months&#45;&gt;are_you_still_sad</title>
<path fill="none" stroke="black" d="M829.058,-374.859C849.733,-361.861 869.529,-349.415 884.874,-339.768"/>
<polygon fill="black" stroke="black" points="886.764,-342.714 893.367,-334.428 883.038,-336.787 886.764,-342.714"/>
</g>
<!-- consider_updating_react&#45;&gt;are_you_still_sad -->
<g id="edge35" class="edge"><title>consider_updating_react&#45;&gt;are_you_still_sad</title>
<path fill="none" stroke="black" d="M970.28,-374.859C958.194,-363.142 946.571,-351.874 937.108,-342.7"/>
<polygon fill="black" stroke="black" points="939.32,-339.97 929.704,-335.522 934.448,-344.996 939.32,-339.97"/>
</g>
<!-- rant -->
<g id="node25" class="node"><title>rant</title>
<polygon fill="none" stroke="black" points="880.442,-252 643.007,-252 643.007,-146 880.442,-146 880.442,-252"/>
<text text-anchor="middle" x="761.725" y="-236.8" font-family="Times,serif" font-size="14.00">Write a constructive blog post</text>
<text text-anchor="middle" x="761.725" y="-222.8" font-family="Times,serif" font-size="14.00"> &#160;&#160;&#160;about the problems you encountered.</text>
<text text-anchor="middle" x="761.725" y="-208.8" font-family="Times,serif" font-size="14.00"> &#160;&#160;&#160;Refrain from personal attacks.</text>
<text text-anchor="middle" x="761.725" y="-194.8" font-family="Times,serif" font-size="14.00"> &#160;&#160;&#160;Be polite. Help the community</text>
<text text-anchor="middle" x="761.725" y="-180.8" font-family="Times,serif" font-size="14.00"> &#160;&#160;&#160;figure out the solutions. Consider</text>
<text text-anchor="middle" x="761.725" y="-166.8" font-family="Times,serif" font-size="14.00"> &#160;&#160;&#160;another stack that better suits</text>
<text text-anchor="middle" x="761.725" y="-152.8" font-family="Times,serif" font-size="14.00"> &#160;&#160;&#160;your needs (e.g. Ember).</text>
</g>
<!-- are_you_still_sad&#45;&gt;rant -->
<g id="edge36" class="edge"><title>are_you_still_sad&#45;&gt;rant</title>
<path fill="none" stroke="black" d="M896.874,-305.116C881.784,-293.38 859.085,-275.725 836.577,-258.218"/>
<polygon fill="black" stroke="black" points="838.678,-255.419 828.636,-252.042 834.381,-260.944 838.678,-255.419"/>
<text text-anchor="middle" x="878.056" y="-272.8" font-family="Times,serif" font-size="14.00">yes</text>
</g>
<!-- happy -->
<g id="node26" class="node"><title>happy</title>
<polygon fill="none" stroke="black" points="1057.9,-109 747.548,-109 747.548,-73 1057.9,-73 1057.9,-109"/>
<text text-anchor="middle" x="902.725" y="-93.8" font-family="Times,serif" font-size="14.00">React makes you happy!</text>
<text text-anchor="middle" x="902.725" y="-79.8" font-family="Times,serif" font-size="14.00"> &#160;&#160;&#160;Or, at least, it doesn’t make you that sad anymore.</text>
</g>
<!-- are_you_still_sad&#45;&gt;happy -->
<g id="edge37" class="edge"><title>are_you_still_sad&#45;&gt;happy</title>
<path fill="none" stroke="black" d="M913.823,-301.938C911.759,-262.91 906.681,-166.847 904.174,-119.41"/>
<polygon fill="black" stroke="black" points="907.66,-119.061 903.637,-109.26 900.67,-119.431 907.66,-119.061"/>
<text text-anchor="middle" x="917.725" y="-194.8" font-family="Times,serif" font-size="14.00">no</text>
</g>
<!-- rant&#45;&gt;happy -->
<g id="edge38" class="edge"><title>rant&#45;&gt;happy</title>
<path fill="none" stroke="black" d="M830.985,-145.932C845.22,-135.23 859.522,-124.478 871.57,-115.422"/>
<polygon fill="black" stroke="black" points="874.02,-117.958 879.91,-109.151 869.814,-112.363 874.02,-117.958"/>
</g>
<!-- share -->
<g id="node27" class="node"><title>share</title>
<path fill="none" stroke="black" d="M1092.38,-36C1092.38,-36 713.072,-36 713.072,-36 707.072,-36 701.072,-30 701.072,-24 701.072,-24 701.072,-12 701.072,-12 701.072,-6 707.072,-0 713.072,-0 713.072,-0 1092.38,-0 1092.38,-0 1098.38,-0 1104.38,-6 1104.38,-12 1104.38,-12 1104.38,-24 1104.38,-24 1104.38,-30 1098.38,-36 1092.38,-36"/>
<text text-anchor="middle" x="902.725" y="-20.8" font-family="Times,serif" font-size="14.00">Share this flowchart: http://bit.ly/react&#45;makes&#45;you&#45;sad.</text>
<text text-anchor="middle" x="902.725" y="-6.8" font-family="Times,serif" font-size="14.00"> &#160;&#160;&#160;Based on and inspired by https://github.com/petehunt/react&#45;howto.</text>
</g>
<!-- happy&#45;&gt;share -->
<g id="edge39" class="edge"><title>happy&#45;&gt;share</title>
<path fill="none" stroke="black" d="M902.725,-72.8129C902.725,-64.7895 902.725,-55.0475 902.725,-46.0691"/>
<polygon fill="black" stroke="black" points="906.225,-46.0288 902.725,-36.0288 899.225,-46.0289 906.225,-46.0288"/>
</g>
</g>
</svg>
